<?xml version="1.0" encoding="UTF-8"?>
<svg width="24px" height="24px" viewBox="0 0 24 24" version="1.1" xmlns="http://www.w3.org/2000/svg" xmlns:xlink="http://www.w3.org/1999/xlink">
    <!-- Generator: Sketch 42 (36781) - http://www.bohemiancoding.com/sketch -->
    <title>Group</title>
    <desc>Created with Sketch.</desc>
    <defs></defs>
    <g id="Page-2" stroke="none" stroke-width="1" fill="none" fill-rule="evenodd">
        <g id="Group" transform="translate(-1.000000, 0.000000)" fill="#FFFFFF">
            <path d="M22.1917,6.991 C22.7257,6.778 23.3007,6.759 23.8407,6.889 C23.3687,5.899 22.7707,4.982 22.0597,4.161 L21.9737,4.418 L20.1917,7.743 C20.1757,7.775 20.1437,7.791 20.1217,7.817 L22.1917,6.991 Z" id="Fill-208"></path>
            <path d="M24.3435,12.1125 L21.3525,13.4305 L18.8265,18.0445 C18.6835,18.3055 18.4665,18.5185 18.2025,18.6555 L15.9285,19.8375 C15.7105,19.9505 15.4725,20.0065 15.2375,20.0065 C14.8765,20.0065 14.5185,19.8755 14.2375,19.6245 C14.1235,19.5235 14.0305,19.4065 13.9545,19.2815 L13.8115,19.3965 C13.7215,19.4685 13.6105,19.5065 13.4995,19.5065 C13.4285,19.5065 13.3565,19.4905 13.2895,19.4595 L10.0415,17.9595 C9.8645,17.8785 9.7515,17.6995 9.7505,17.5065 L9.7515,15.2385 L9.7155,15.2075 L7.2455,13.6135 C6.8805,13.3775 6.6505,12.9955 6.5865,12.5745 L5.1785,11.3875 C4.9855,11.2255 4.9435,10.9465 5.0785,10.7345 L7.3305,7.2355 C7.4225,7.0925 7.5805,7.0065 7.7505,7.0065 L12.3085,7.0065 L13.2515,6.5185 L13.2505,4.7965 L11.7515,3.9395 C11.5955,3.8515 11.4995,3.6855 11.4985,3.5065 C11.4995,3.3265 11.5945,3.1605 11.7505,3.0735 L16.2675,0.4705 C15.2255,0.1745 14.1335,0.0065 12.9985,0.0045 C6.3825,0.0045 0.9985,5.3885 0.9985,12.0065 C0.9985,18.6225 6.3835,24.0065 12.9995,24.0065 C19.6165,24.0065 24.9995,18.6235 24.9995,12.0065 C24.9995,11.9025 24.9885,11.8025 24.9855,11.6985 C24.7895,11.8615 24.5785,12.0085 24.3435,12.1125" id="Fill-209"></path>
            <path d="M14.5799,10.0295 L18.0689,8.6365 L15.2659,6.8805 C15.1159,6.7865 14.9269,6.7785 14.7699,6.8595 L12.7359,7.9105 C12.5789,7.9915 12.4759,8.1495 12.4669,8.3275 C12.4569,8.5045 12.5409,8.6735 12.6889,8.7715 L14.5799,10.0295 Z" id="Fill-210"></path>
            <path d="M24.8435,8.8406 C24.4645,7.9976 23.4265,7.5746 22.5625,7.9206 L12.7295,11.8446 L10.2675,10.7426 C10.1215,10.6786 9.9525,10.6866 9.8135,10.7666 L7.8095,11.9206 C7.6585,12.0066 7.5635,12.1656 7.5595,12.3396 C7.5555,12.5146 7.6415,12.6786 7.7885,12.7726 L12.3485,15.7166 C12.4845,15.8056 12.6535,15.8206 12.8035,15.7626 L16.2865,14.3886 L14.7705,18.3266 C14.6955,18.5206 14.7485,18.7406 14.9035,18.8786 C14.9975,18.9626 15.1165,19.0056 15.2375,19.0056 C15.3155,19.0056 15.3945,18.9876 15.4675,18.9506 L17.7405,17.7686 C17.8285,17.7226 17.9015,17.6516 17.9485,17.5646 L20.6375,12.6516 L23.9395,11.1986 C24.3695,11.0076 24.7135,10.6466 24.8815,10.2076 C25.0505,9.7676 25.0365,9.2686 24.8435,8.8406" id="Fill-211"></path>
        </g>
    </g>
</svg>